#!OML:ASF F:\VICON\USERDATA\INSTALL\rory3\rory3.ASF
:FULLY-SPECIFIED
:DEGREES
587
root 0.335922 15.2521 0.917976 30.8233 -3.0638 -2.84884
lowerback 18.5236 -0.145889 2.54205
upperback -0.623402 0.408332 0.409846
thorax -11.1144 0.0579586 -1.10996
lowerneck -30.8037 -2.81014 -2.3458
upperneck -0.0860864 -3.28773 4.64715
head 4.65574 -1.26251 1.50214
rclavicle 7.15625e-015 -3.18055e-015
rhumerus -33.5763 27.5016 -83.0992
rradius 48.1034
rwrist 25.4053
rhand -23.9063 -46.4711
rfingers 7.12502
rthumb 2.5679 -436.435
lclavicle 7.15625e-015 -3.18055e-015
lhumerus -28.8261 -42.6813 75.4396
lradius 43.7218
lwrist -5.59308
lhand -40.5177 -43.6634
lfingers 7.12502
lthumb -13.4668 -14.1188
rfemur -74.1443 5.80752 18.6784
rtibia 74.9442
rfoot -16.2077 -20.8599
rtoes -16.9899
lfemur -74.204 1.28094 -16.3324
ltibia 74.5767
lfoot -20.1212 9.82732
ltoes -11.5222
588
root 0.343379 15.494 0.993451 30.5791 -3.86956 -3.15118
lowerback 16.4664 0.103596 2.13772
upperback -0.487562 0.591727 0.417826
thorax -9.78521 0.184709 -0.906055
lowerneck -29.7097 -2.56408 -2.01898
upperneck 0.0918596 -3.09156 4.48658
head 4.56175 -1.1892 1.42425
rclavicle 1.13307e-014 -4.07509e-015
rhumerus -35.7438 27.5898 -84.108
rradius 48.6588
rwrist 25.7973
rhand -24.196 -46.0788
rfingers 7.12502
rthumb 2.28802 -436.046
lclavicle 1.13307e-014 -4.07509e-015
lhumerus -32.0658 -42.186 77.1875
lradius 44.1112
lwrist -6.24451
lhand -41.0069 -43.8544
lfingers 7.12502
lthumb -13.9383 -14.3416
rfemur -72.2836 6.51982 18.4992
rtibia 72.2381
rfoot -14.9265 -19.4705
rtoes -15.1716
lfemur -72.1155 1.71345 -16.135
ltibia 72.116
lfoot -18.4143 9.42166
ltoes -12.1971
589
root 0.351558 15.7796 1.08452 29.8028 -3.8123 -3.14249
lowerback 17.2243 -0.0590091 2.07142
upperback -1.95576 0.420763 0.498694
thorax -11.8729 0.0795507 -0.741808
lowerneck -27.7912 -2.22838 -1.84789
upperneck 1.81239 -2.76777 4.26916
head 4.85489 -1.04618 1.36404
rclavicle 6.16232e-015 6.16232e-015
rhumerus -41.7619 27.1864 -86.569
rradius 49.8939
rwrist 27.1322
rhand -24.5143 -45.4615
rfingers 7.12502
rthumb 1.98065 -435.432
lclavicle 6.16232e-015 6.16232e-015
lhumerus -39.2964 -41.6634 81.4316
lradius 44.766
lwrist -7.32951
lhand -41.3314 -44.1577
lfingers 7.12502
lthumb -14.251 -14.6667
rfemur -69.3978 6.44935 18.5787
rtibia 69.2639
rfoot -12.23 -18.6124
rtoes -21.2273
lfemur -69.2228 1.36297 -15.8649
ltibia 69.2984
lfoot -16.73 8.92007
ltoes -14.5009
590
root 0.37046 16.0851 1.18854 29.224 -3.9831 -3.54934
lowerback 15.9782 -0.0936622 2.51823
upperback -2.29584 0.439133 0.520825
thorax -11.5265 0.0616737 -0.970396
lowerneck -26.0395 -2.01602 -1.71916
upperneck 2.35128 -2.56379 4.24862
head 4.80108 -0.959282 1.35569
rclavicle -4.57205e-015 9.14409e-015
rhumerus -45.1972 26.7788 -88.0819
rradius 50.6821
rwrist 27.9302
rhand -24.608 -45.0935
rfingers 7.12502
rthumb 1.89014 -435.065
lclavicle -4.57205e-015 9.14409e-015
lhumerus -44.0607 -41.1743 84.1962
lradius 45.1279
lwrist -7.82537
lhand -41.4263 -43.8069
lfingers 7.12502
lthumb -14.3425 -14.3223
rfemur -66.433 6.50758 19.0186
rtibia 65.9604
rfoot -10.4244 -17.0316
rtoes -21.8444
lfemur -66.2905 1.36849 -15.3693
ltibia 66.2502
lfoot -15.0045 8.56083
ltoes -17.957
591
root 0.383866 16.4163 1.30065 28.7144 -4.34147 -3.81846
lowerback 14.7307 -0.0412024 2.6536
upperback -2.76971 0.502909 0.509576
thorax -11.3244 0.0818192 -1.06872
lowerneck -24.2104 -1.85539 -1.33838
upperneck 3.00778 -2.47038 3.93815
head 4.742 -0.943894 1.20898
rclavicle 2.98177e-016 1.03368e-014
rhumerus -49.1173 26.1596 -89.704
rradius 51.6223
rwrist 28.7111
rhand -24.2785 -44.576
rfingers 7.12502
rthumb 2.2084 -434.544
lclavicle 2.98177e-016 1.03368e-014
lhumerus -49.1289 -40.6051 87.2211
lradius 45.4393
lwrist -7.84118
lhand -40.8942 -43.5264
lfingers 7.12502
lthumb -13.8297 -14.0061
rfemur -63.3805 6.60166 19.2864
rtibia 62.3347
rfoot -8.50793 -15.4977
rtoes -23.3183
lfemur -63.2627 1.49979 -15.0832
ltibia 62.7878
lfoot -13.0519 7.48783
ltoes -20.1545
592
root 0.390655 16.7598 1.40469 28.2229 -4.91513 -3.95406
lowerback 13.5547 0.0999169 2.47515
upperback -3.22998 0.623082 0.44563
thorax -11.1428 0.147512 -1.05819
lowerneck -22.1568 -1.65339 -0.870662
upperneck 3.35268 -2.30627 3.48769
head 4.53806 -0.90544 1.01385
rclavicle 6.65929e-015 2.04748e-014
rhumerus -53.0707 25.5023 -91.2999
rradius 52.6852
rwrist 29.19
rhand -23.4564 -44.0274
rfingers 7.12502
rthumb 3.00236 -433.986
lclavicle 6.65929e-015 2.04748e-014
lhumerus -54.1754 -39.8474 90.2188
lradius 45.8419
lwrist -7.55605
lhand -39.9453 -43.0193
lfingers 7.12502
lthumb -12.9151 -13.439
rfemur -60.3657 6.84106 19.3318
rtibia 58.3905
rfoot -5.14225 -14.1377
rtoes -26.4653
lfemur -60.1208 1.68107 -14.9399
ltibia 58.9449
lfoot -10.4103 5.70182
ltoes -21.2825
593
root 0.396812 17.1224 1.51791 27.6751 -5.52456 -4.09183
lowerback 12.2664 0.31543 2.3609
upperback -2.98623 0.843256 0.406897
thorax -10.1033 0.274613 -1.07032
lowerneck -22.1854 -1.55607 -0.983462
upperneck 4.00999 -2.16381 3.47805
head 4.74859 -0.829594 1.04183
rclavicle 5.36719e-015 -9.74045e-015
rhumerus -55.5118 24.7668 -92.1114
rradius 53.8094
rwrist 28.9657
rhand -22.7311 -43.935
rfingers 7.12502
rthumb 3.70277 -433.883
lclavicle 5.36719e-015 -9.74045e-015
lhumerus -57.3058 -39.0972 92.2929
lradius 46.2323
lwrist -7.03133
lhand -39.9232 -42.2024
lfingers 7.12502
lthumb -12.8938 -12.6207
rfemur -57.1308 7.10028 19.3429
rtibia 54.1216
rfoot -0.817757 -12.1771
rtoes -29.4325
lfemur -56.632 1.7302 -14.7272
ltibia 54.6687
lfoot -7.07408 4.26004
ltoes -22.8611
